Identity Thief 2013 720p HDRip XviD AC3-SmY


Release Info:


Title: Identity Thief 
Year: 2013 
Language: English 
Subtitles: Chinese 
File format: XVID + AC3 
Video size: 1280 x 540 
File size: 1CD 2.31GB 
Length 01:51:23 (h: m: s) 
Source: SmY (P2P)


IMDB Info:


Name: Identity Thief 
Genre: Comedy / Crime 
IMDB Link: http://www.imdb.com/title/tt2024432/
IMDB Rating: 5.8/10 from 5,983 users
Director: Seth Gordon
Writers: Craig Mazin (screenplay), Jerry Eeten (story)
Cast: Jason Bateman, Melissa McCarthy, John Cho
Plot: Mild-mannered businessman Sandy Patterson travels from Denver to 
Miami to confront the deceptively harmless-looking woman who has been 
living it up after stealing Sandy's identity.


More Info:


Format: AVI 
Format / Info: Audio Video Interleave 
Format profile: OpenDML 
Format settings: rec 
File size: 2.31 GiB 
Duration: 1h 51mn 
Overall bit rate: 2 968 Kbps 
Writing application: AVI-Mux GUI 1.17.8, Aug 30 2008 12:36:58 

Video # 0 
ID: 0 
Format: MPEG-4 Visual 
Format profile: Advanced Simple @ L5 
Format settings, BVOP: 2 
Format settings, QPel: No 
Format settings, GMC: No warppoints 
Format settings, Matrix: Default (MPEG) 
Codec ID: XVID 
Codec ID / Hint: XviD 
Duration: 1h 51mn 
Bit rate: 2 770 Kbps 
Width: 1 280 pixels 
Height: 540 pixels 
Display aspect ratio: 2.35:1 
Frame rate: 25.000 fps 
Color space: YUV 
Chroma subsampling: 4:2:0 
Bit depth: 8 bits 
Scan type: Progressive 
Compression mode: Lossy 
Bits / (Pixel * Frame): 0.160 
Stream size: 2.16 GiB (93%) 
Writing library: XviD 1.2.1 (UTC 2008-12-04) 

Audio # 1 
ID: 1 
Format: AC-3 
Format / Info: Audio Coding 3 
Mode extension: CM (complete main) 
Codec ID: 2000 
Duration: 1h 51mn 
Bit rate mode: Constant 
Bit rate: 192 Kbps 
Channel (s): 2 channels 
Channel positions: Front: LR 
Sampling rate: 48.0 KHz 
Bit depth: 16 bits 
Compression mode: Lossy 
Stream size: 153 MiB (6%) 
Alignment: Aligned on interleaves 
Interleave, duration: 64 ms (1.60 video frames) 
Interleave, preload duration: 192 ms 
Title: yapian


Poster:

 
http://i.imgur.com/Fy53fcS.jpg


Screenshots:

 
http://i.imgur.com/3B3uoIN.jpg

 
http://i.imgur.com/S5hJFrA.jpg

 
http://i.imgur.com/ROFSrfH.jpg


SEED AND ENJOY!